<svg xmlns="http://www.w3.org/2000/svg" viewBox="0 0 720 400" width="720" height="400" font-family="-apple-system, BlinkMacSystemFont, 'Segoe UI', 'Noto Sans', Helvetica, Arial, sans-serif" role="img" aria-label="Step steer — normalised yaw-rate response (ISO 7401)"><rect x="0.5" y="0.5" width="719" height="399" rx="8" fill="#fcfcfb" stroke="#e1e0d9"/><text x="20" y="26" font-size="15" font-weight="600" fill="#0b0b0b">Step steer — normalised yaw-rate response (ISO 7401)</text><text x="20" y="45" font-size="12" fill="#52514e">80 km/h, steering amplitude calibrated to a steady-state lateral acceleration of 4 m/s², nonlinear dual-track model</text><line x1="20" y1="62" x2="38" y2="62" stroke="#2a78d6" stroke-width="2.5" stroke-linecap="round"/><text x="44" y="66" font-size="12" fill="#52514e">Mid-size sedan · T90 0.132 s · overshoot 8.6 %</text><line x1="343.72" y1="62" x2="361.72" y2="62" stroke="#eb6834" stroke-width="2.5" stroke-linecap="round"/><text x="367.72" y="66" font-size="12" fill="#52514e">SUV · T90 0.144 s · overshoot 11.6 %</text><line x1="20" y1="82" x2="38" y2="82" stroke="#1baf7a" stroke-width="2.5" stroke-linecap="round"/><text x="44" y="86" font-size="12" fill="#52514e">Sports car · T90 0.132 s · overshoot 4.1 %</text><line x1="60" y1="350" x2="698" y2="350" stroke="#c3c2b7"/><text x="52" y="354" font-size="11" fill="#898781" text-anchor="end">0.0</text><line x1="60" y1="263.08" x2="698" y2="263.08" stroke="#ecebe6"/><text x="52" y="267.08" font-size="11" fill="#898781" text-anchor="end">0.5</text><line x1="60" y1="176.15" x2="698" y2="176.15" stroke="#ecebe6"/><text x="52" y="180.15" font-size="11" fill="#898781" text-anchor="end">1.0</text><line x1="107.26" y1="124" x2="107.26" y2="350" stroke="#ecebe6"/><text x="107.26" y="368" font-size="11" fill="#898781" text-anchor="middle">0.0</text><line x1="225.41" y1="124" x2="225.41" y2="350" stroke="#ecebe6"/><text x="225.41" y="368" font-size="11" fill="#898781" text-anchor="middle">0.5</text><line x1="343.56" y1="124" x2="343.56" y2="350" stroke="#ecebe6"/><text x="343.56" y="368" font-size="11" fill="#898781" text-anchor="middle">1.0</text><line x1="461.7" y1="124" x2="461.7" y2="350" stroke="#ecebe6"/><text x="461.7" y="368" font-size="11" fill="#898781" text-anchor="middle">1.5</text><line x1="579.85" y1="124" x2="579.85" y2="350" stroke="#ecebe6"/><text x="579.85" y="368" font-size="11" fill="#898781" text-anchor="middle">2.0</text><line x1="698" y1="124" x2="698" y2="350" stroke="#ecebe6"/><text x="698" y="368" font-size="11" fill="#898781" text-anchor="middle">2.5</text><line x1="60" y1="350.5" x2="698" y2="350.5" stroke="#c3c2b7"/><text x="20" y="114" font-size="11" fill="#52514e">r / r<tspan baseline-shift="sub" font-size="75%">ss</tspan> [–]</text><text x="698" y="390" font-size="11" fill="#52514e" text-anchor="end">time after steer onset [s]</text><clipPath id="c-step-light"><rect x="60" y="124" width="638" height="226"/></clipPath><g clip-path="url(#c-step-light)"><line x1="60" y1="176.15" x2="698" y2="176.15" stroke="#898781" stroke-dasharray="5 4"/><text x="692" y="170.15" font-size="11" fill="#52514e" text-anchor="end">steady state</text><path d="M-10.89,350L-8.53,350L-6.16,350L-3.8,350L-1.44,350L0.93,350L3.29,350L5.65,350L8.01,350L10.38,350L12.74,350L15.1,350L17.47,350L19.83,350L22.19,350L24.56,350L26.92,350L29.28,350L31.64,350L34.01,350L36.37,350L38.73,350L41.1,350L43.46,350L45.82,350L48.19,350L50.55,350L52.91,350L55.27,350L57.64,350L60,350L62.36,350L64.73,350L67.09,350L69.45,350L71.81,350L74.18,350L76.54,350L78.9,350L81.27,350L83.63,350L85.99,350L88.36,350L90.72,350L93.08,350L95.44,350L97.81,350L100.17,350L102.53,350L104.9,350L107.26,350L109.62,349.78L111.99,348.43L114.35,345.31L116.71,340.02L119.07,332.27L121.44,322.03L123.8,309.36L126.16,294.57L128.53,278.92L130.89,263.59L133.25,249.28L135.61,236.39L137.98,225.03L140.34,215.1L142.7,206.44L145.07,198.92L147.43,192.41L149.79,186.79L152.16,181.97L154.52,177.85L156.88,174.35L159.24,171.4L161.61,168.95L163.97,166.93L166.33,165.29L168.7,163.99L171.06,162.99L173.42,162.24L175.79,161.73L178.15,161.41L180.51,161.26L182.87,161.25L185.24,161.38L187.6,161.6L189.96,161.92L192.33,162.31L194.69,162.75L197.05,163.25L199.41,163.78L201.78,164.34L204.14,164.92L206.5,165.51L208.87,166.11L211.23,166.7L213.59,167.29L215.96,167.87L218.32,168.44L220.68,168.99L223.04,169.53L225.41,170.05L227.77,170.54L230.13,171.01L232.5,171.46L234.86,171.89L237.22,172.29L239.59,172.67L241.95,173.03L244.31,173.36L246.67,173.67L249.04,173.95L251.4,174.22L253.76,174.46L256.13,174.68L258.49,174.89L260.85,175.07L263.21,175.24L265.58,175.39L267.94,175.53L270.3,175.65L272.67,175.76L275.03,175.85L277.39,175.93L279.76,176.01L282.12,176.07L284.48,176.12L286.84,176.16L289.21,176.2L291.57,176.23L293.93,176.25L296.3,176.27L298.66,176.28L301.02,176.29L303.39,176.29L305.75,176.29L308.11,176.29L310.47,176.28L312.84,176.27L315.2,176.26L317.56,176.25L319.93,176.24L322.29,176.23L324.65,176.21L327.01,176.2L329.38,176.18L331.74,176.17L334.1,176.15L336.47,176.14L338.83,176.12L341.19,176.11L343.56,176.1L345.92,176.08L348.28,176.07L350.64,176.06L353.01,176.04L355.37,176.03L357.73,176.02L360.1,176.01L362.46,176L364.82,175.99L367.19,175.99L369.55,175.98L371.91,175.97L374.27,175.97L376.64,175.96L379,175.96L381.36,175.95L383.73,175.95L386.09,175.94L388.45,175.94L390.81,175.94L393.18,175.94L395.54,175.94L397.9,175.93L400.27,175.93L402.63,175.93L404.99,175.93L407.36,175.93L409.72,175.93L412.08,175.93L414.44,175.93L416.81,175.93L419.17,175.93L421.53,175.93L423.9,175.94L426.26,175.94L428.62,175.94L430.99,175.94L433.35,175.94L435.71,175.94L438.07,175.94L440.44,175.94L442.8,175.95L445.16,175.95L447.53,175.95L449.89,175.95L452.25,175.95L454.61,175.95L456.98,175.96L459.34,175.96L461.7,175.96L464.07,175.96L466.43,175.96L468.79,175.96L471.16,175.97L473.52,175.97L475.88,175.97L478.24,175.97L480.61,175.97L482.97,175.97L485.33,175.98L487.7,175.98L490.06,175.98L492.42,175.98L494.79,175.98L497.15,175.98L499.51,175.98L501.87,175.99L504.24,175.99L506.6,175.99L508.96,175.99L511.33,175.99L513.69,175.99L516.05,175.99L518.41,176L520.78,176L523.14,176L525.5,176L527.87,176L530.23,176L532.59,176L534.96,176L537.32,176.01L539.68,176.01L542.04,176.01L544.41,176.01L546.77,176.01L549.13,176.01L551.5,176.01L553.86,176.01L556.22,176.02L558.59,176.02L560.95,176.02L563.31,176.02L565.67,176.02L568.04,176.02L570.4,176.02L572.76,176.02L575.13,176.03L577.49,176.03L579.85,176.03L582.21,176.03L584.58,176.03L586.94,176.03L589.3,176.03L591.67,176.03L594.03,176.04L596.39,176.04L598.76,176.04L601.12,176.04L603.48,176.04L605.84,176.04L608.21,176.04L610.57,176.04L612.93,176.05L615.3,176.05L617.66,176.05L620.02,176.05L622.39,176.05L624.75,176.05L627.11,176.05L629.47,176.05L631.84,176.06L634.2,176.06L636.56,176.06L638.93,176.06L641.29,176.06L643.65,176.06L646.01,176.06L648.38,176.06L650.74,176.07L653.1,176.07L655.47,176.07L657.83,176.07L660.19,176.07L662.56,176.07L664.92,176.07L667.28,176.07L669.64,176.08L672.01,176.08L674.37,176.08L676.73,176.08L679.1,176.08L681.46,176.08L683.82,176.08L686.19,176.08L688.55,176.09L690.91,176.09L693.27,176.09L695.64,176.09L698,176.09L700.36,176.09L702.73,176.09L705.09,176.09L707.45,176.1L709.81,176.1L712.18,176.1L714.54,176.1L716.9,176.1L719.27,176.1L721.63,176.1L723.99,176.1L726.36,176.11L728.72,176.11L731.08,176.11L733.44,176.11L735.81,176.11L738.17,176.11L740.53,176.11L742.9,176.11L745.26,176.12L747.62,176.12L749.99,176.12L752.35,176.12L754.71,176.12L757.07,176.12L759.44,176.12L761.8,176.12L764.16,176.13L766.53,176.13L768.89,176.13L771.25,176.13L773.61,176.13L775.98,176.13L778.34,176.13L780.7,176.13L783.07,176.14L785.43,176.14L787.79,176.14L790.16,176.14L792.52,176.14L794.88,176.14L797.24,176.14L799.61,176.14L801.97,176.15L804.33,176.15L806.7,176.15L809.06,176.15L811.42,176.15L813.79,176.15L816.15,176.15L818.51,176.16L820.87,176.16L823.24,176.16L825.6,176.16L827.96,176.16L830.33,176.16L832.69,176.16L835.05,176.16L837.41,176.17L839.78,176.17L842.14,176.17L844.5,176.17L846.87,176.17L849.23,176.17L851.59,176.17L853.96,176.17L856.32,176.18L858.68,176.18L861.04,176.18L863.41,176.18L865.77,176.18L868.13,176.18L870.5,176.18L872.86,176.18L875.22,176.19L877.59,176.19L879.95,176.19L882.31,176.19L884.67,176.19L887.04,176.19L889.4,176.19L891.76,176.19L894.13,176.2L896.49,176.2L898.85,176.2L901.21,176.2L903.58,176.2L905.94,176.2L908.3,176.2L910.67,176.2L913.03,176.21L915.39,176.21L917.76,176.21L920.12,176.21L922.48,176.21L924.84,176.21L927.21,176.21L929.57,176.21L931.93,176.22L934.3,176.22" fill="none" stroke="#2a78d6" stroke-width="2" stroke-linejoin="round" stroke-linecap="round"/><path d="M-10.89,350L-8.53,350L-6.16,350L-3.8,350L-1.44,350L0.93,350L3.29,350L5.65,350L8.01,350L10.38,350L12.74,350L15.1,350L17.47,350L19.83,350L22.19,350L24.56,350L26.92,350L29.28,350L31.64,350L34.01,350L36.37,350L38.73,350L41.1,350L43.46,350L45.82,350L48.19,350L50.55,350L52.91,350L55.27,350L57.64,350L60,350L62.36,350L64.73,350L67.09,350L69.45,350L71.81,350L74.18,350L76.54,350L78.9,350L81.27,350L83.63,350L85.99,350L88.36,350L90.72,350L93.08,350L95.44,350L97.81,350L100.17,350L102.53,350L104.9,350L107.26,350L109.62,349.84L111.99,348.79L114.35,346.4L116.71,342.29L119.07,336.19L121.44,327.96L123.8,317.62L126.16,305.23L128.53,291.26L130.89,276.84L133.25,262.79L135.61,249.62L137.98,237.61L140.34,226.91L142.7,217.46L145.07,209.11L147.43,201.74L149.79,195.22L152.16,189.46L154.52,184.39L156.88,179.92L159.24,175.99L161.61,172.55L163.97,169.56L166.33,166.96L168.7,164.72L171.06,162.81L173.42,161.2L175.79,159.85L178.15,158.74L180.51,157.85L182.87,157.15L185.24,156.63L187.6,156.27L189.96,156.05L192.33,155.96L194.69,155.98L197.05,156.1L199.41,156.3L201.78,156.58L204.14,156.93L206.5,157.34L208.87,157.79L211.23,158.29L213.59,158.83L215.96,159.39L218.32,159.97L220.68,160.58L223.04,161.19L225.41,161.82L227.77,162.45L230.13,163.08L232.5,163.71L234.86,164.34L237.22,164.96L239.59,165.57L241.95,166.17L244.31,166.75L246.67,167.33L249.04,167.88L251.4,168.42L253.76,168.95L256.13,169.45L258.49,169.94L260.85,170.4L263.21,170.85L265.58,171.28L267.94,171.69L270.3,172.08L272.67,172.45L275.03,172.8L277.39,173.13L279.76,173.44L282.12,173.74L284.48,174.01L286.84,174.27L289.21,174.51L291.57,174.74L293.93,174.95L296.3,175.14L298.66,175.32L301.02,175.48L303.39,175.63L305.75,175.77L308.11,175.9L310.47,176.01L312.84,176.11L315.2,176.21L317.56,176.29L319.93,176.36L322.29,176.43L324.65,176.48L327.01,176.53L329.38,176.57L331.74,176.6L334.1,176.63L336.47,176.65L338.83,176.67L341.19,176.68L343.56,176.69L345.92,176.69L348.28,176.69L350.64,176.69L353.01,176.68L355.37,176.68L357.73,176.66L360.1,176.65L362.46,176.64L364.82,176.62L367.19,176.6L369.55,176.58L371.91,176.56L374.27,176.54L376.64,176.52L379,176.5L381.36,176.48L383.73,176.46L386.09,176.43L388.45,176.41L390.81,176.39L393.18,176.37L395.54,176.35L397.9,176.33L400.27,176.31L402.63,176.29L404.99,176.27L407.36,176.25L409.72,176.23L412.08,176.22L414.44,176.2L416.81,176.19L419.17,176.17L421.53,176.16L423.9,176.14L426.26,176.13L428.62,176.12L430.99,176.11L433.35,176.1L435.71,176.09L438.07,176.08L440.44,176.07L442.8,176.06L445.16,176.05L447.53,176.05L449.89,176.04L452.25,176.04L454.61,176.03L456.98,176.03L459.34,176.02L461.7,176.02L464.07,176.01L466.43,176.01L468.79,176.01L471.16,176.01L473.52,176.01L475.88,176L478.24,176L480.61,176L482.97,176L485.33,176L487.7,176L490.06,176L492.42,176L494.79,176L497.15,176L499.51,176L501.87,176L504.24,176L506.6,176.01L508.96,176.01L511.33,176.01L513.69,176.01L516.05,176.01L518.41,176.01L520.78,176.01L523.14,176.02L525.5,176.02L527.87,176.02L530.23,176.02L532.59,176.02L534.96,176.02L537.32,176.03L539.68,176.03L542.04,176.03L544.41,176.03L546.77,176.03L549.13,176.03L551.5,176.04L553.86,176.04L556.22,176.04L558.59,176.04L560.95,176.04L563.31,176.04L565.67,176.05L568.04,176.05L570.4,176.05L572.76,176.05L575.13,176.05L577.49,176.05L579.85,176.05L582.21,176.05L584.58,176.06L586.94,176.06L589.3,176.06L591.67,176.06L594.03,176.06L596.39,176.06L598.76,176.06L601.12,176.07L603.48,176.07L605.84,176.07L608.21,176.07L610.57,176.07L612.93,176.07L615.3,176.07L617.66,176.07L620.02,176.07L622.39,176.07L624.75,176.08L627.11,176.08L629.47,176.08L631.84,176.08L634.2,176.08L636.56,176.08L638.93,176.08L641.29,176.08L643.65,176.08L646.01,176.08L648.38,176.09L650.74,176.09L653.1,176.09L655.47,176.09L657.83,176.09L660.19,176.09L662.56,176.09L664.92,176.09L667.28,176.09L669.64,176.09L672.01,176.1L674.37,176.1L676.73,176.1L679.1,176.1L681.46,176.1L683.82,176.1L686.19,176.1L688.55,176.1L690.91,176.1L693.27,176.1L695.64,176.1L698,176.11L700.36,176.11L702.73,176.11L705.09,176.11L707.45,176.11L709.81,176.11L712.18,176.11L714.54,176.11L716.9,176.11L719.27,176.11L721.63,176.11L723.99,176.12L726.36,176.12L728.72,176.12L731.08,176.12L733.44,176.12L735.81,176.12L738.17,176.12L740.53,176.12L742.9,176.12L745.26,176.12L747.62,176.13L749.99,176.13L752.35,176.13L754.71,176.13L757.07,176.13L759.44,176.13L761.8,176.13L764.16,176.13L766.53,176.13L768.89,176.13L771.25,176.13L773.61,176.14L775.98,176.14L778.34,176.14L780.7,176.14L783.07,176.14L785.43,176.14L787.79,176.14L790.16,176.14L792.52,176.14L794.88,176.14L797.24,176.15L799.61,176.15L801.97,176.15L804.33,176.15L806.7,176.15L809.06,176.15L811.42,176.15L813.79,176.15L816.15,176.15L818.51,176.15L820.87,176.16L823.24,176.16L825.6,176.16L827.96,176.16L830.33,176.16L832.69,176.16L835.05,176.16L837.41,176.16L839.78,176.16L842.14,176.16L844.5,176.17L846.87,176.17L849.23,176.17L851.59,176.17L853.96,176.17L856.32,176.17L858.68,176.17L861.04,176.17L863.41,176.17L865.77,176.17L868.13,176.18L870.5,176.18L872.86,176.18L875.22,176.18L877.59,176.18L879.95,176.18L882.31,176.18L884.67,176.18L887.04,176.18L889.4,176.18L891.76,176.19L894.13,176.19L896.49,176.19L898.85,176.19L901.21,176.19L903.58,176.19L905.94,176.19L908.3,176.19L910.67,176.19L913.03,176.19L915.39,176.2L917.76,176.2L920.12,176.2L922.48,176.2L924.84,176.2L927.21,176.2L929.57,176.2L931.93,176.2L934.3,176.2" fill="none" stroke="#eb6834" stroke-width="2" stroke-linejoin="round" stroke-linecap="round"/><path d="M-10.89,350L-8.53,350L-6.16,350L-3.8,350L-1.44,350L0.93,350L3.29,350L5.65,350L8.01,350L10.38,350L12.74,350L15.1,350L17.47,350L19.83,350L22.19,350L24.56,350L26.92,350L29.28,350L31.64,350L34.01,350L36.37,350L38.73,350L41.1,350L43.46,350L45.82,350L48.19,350L50.55,350L52.91,350L55.27,350L57.64,350L60,350L62.36,350L64.73,350L67.09,350L69.45,350L71.81,350L74.18,350L76.54,350L78.9,350L81.27,350L83.63,350L85.99,350L88.36,350L90.72,350L93.08,350L95.44,350L97.81,350L100.17,350L102.53,350L104.9,350L107.26,350L109.62,349.52L111.99,346.48L114.35,339.32L116.71,327.35L119.07,311.26L121.44,293.75L123.8,276.58L126.16,260.62L128.53,246.34L130.89,233.91L133.25,223.28L135.61,214.21L137.98,206.5L140.34,199.95L142.7,194.39L145.07,189.69L147.43,185.72L149.79,182.39L152.16,179.61L154.52,177.29L156.88,175.37L159.24,173.81L161.61,172.54L163.97,171.53L166.33,170.74L168.7,170.14L171.06,169.69L173.42,169.39L175.79,169.19L178.15,169.1L180.51,169.08L182.87,169.13L185.24,169.23L187.6,169.38L189.96,169.56L192.33,169.77L194.69,170L197.05,170.24L199.41,170.49L201.78,170.75L204.14,171.01L206.5,171.27L208.87,171.53L211.23,171.78L213.59,172.02L215.96,172.26L218.32,172.49L220.68,172.71L223.04,172.92L225.41,173.11L227.77,173.3L230.13,173.48L232.5,173.64L234.86,173.8L237.22,173.94L239.59,174.08L241.95,174.2L244.31,174.32L246.67,174.43L249.04,174.53L251.4,174.62L253.76,174.7L256.13,174.78L258.49,174.85L260.85,174.91L263.21,174.97L265.58,175.02L267.94,175.07L270.3,175.11L272.67,175.15L275.03,175.19L277.39,175.22L279.76,175.24L282.12,175.27L284.48,175.29L286.84,175.31L289.21,175.33L291.57,175.35L293.93,175.36L296.3,175.37L298.66,175.38L301.02,175.39L303.39,175.4L305.75,175.41L308.11,175.42L310.47,175.42L312.84,175.43L315.2,175.43L317.56,175.44L319.93,175.44L322.29,175.45L324.65,175.45L327.01,175.45L329.38,175.46L331.74,175.46L334.1,175.46L336.47,175.46L338.83,175.47L341.19,175.47L343.56,175.47L345.92,175.47L348.28,175.48L350.64,175.48L353.01,175.48L355.37,175.48L357.73,175.49L360.1,175.49L362.46,175.49L364.82,175.49L367.19,175.5L369.55,175.5L371.91,175.5L374.27,175.5L376.64,175.51L379,175.51L381.36,175.51L383.73,175.52L386.09,175.52L388.45,175.52L390.81,175.52L393.18,175.53L395.54,175.53L397.9,175.53L400.27,175.54L402.63,175.54L404.99,175.54L407.36,175.55L409.72,175.55L412.08,175.55L414.44,175.56L416.81,175.56L419.17,175.56L421.53,175.57L423.9,175.57L426.26,175.58L428.62,175.58L430.99,175.58L433.35,175.59L435.71,175.59L438.07,175.59L440.44,175.6L442.8,175.6L445.16,175.6L447.53,175.61L449.89,175.61L452.25,175.61L454.61,175.62L456.98,175.62L459.34,175.62L461.7,175.63L464.07,175.63L466.43,175.64L468.79,175.64L471.16,175.64L473.52,175.65L475.88,175.65L478.24,175.65L480.61,175.66L482.97,175.66L485.33,175.66L487.7,175.67L490.06,175.67L492.42,175.67L494.79,175.68L497.15,175.68L499.51,175.69L501.87,175.69L504.24,175.69L506.6,175.7L508.96,175.7L511.33,175.7L513.69,175.71L516.05,175.71L518.41,175.71L520.78,175.72L523.14,175.72L525.5,175.72L527.87,175.73L530.23,175.73L532.59,175.73L534.96,175.74L537.32,175.74L539.68,175.75L542.04,175.75L544.41,175.75L546.77,175.76L549.13,175.76L551.5,175.76L553.86,175.77L556.22,175.77L558.59,175.77L560.95,175.78L563.31,175.78L565.67,175.78L568.04,175.79L570.4,175.79L572.76,175.79L575.13,175.8L577.49,175.8L579.85,175.81L582.21,175.81L584.58,175.81L586.94,175.82L589.3,175.82L591.67,175.82L594.03,175.83L596.39,175.83L598.76,175.83L601.12,175.84L603.48,175.84L605.84,175.84L608.21,175.85L610.57,175.85L612.93,175.85L615.3,175.86L617.66,175.86L620.02,175.86L622.39,175.87L624.75,175.87L627.11,175.88L629.47,175.88L631.84,175.88L634.2,175.89L636.56,175.89L638.93,175.89L641.29,175.9L643.65,175.9L646.01,175.9L648.38,175.91L650.74,175.91L653.1,175.91L655.47,175.92L657.83,175.92L660.19,175.92L662.56,175.93L664.92,175.93L667.28,175.93L669.64,175.94L672.01,175.94L674.37,175.95L676.73,175.95L679.1,175.95L681.46,175.96L683.82,175.96L686.19,175.96L688.55,175.97L690.91,175.97L693.27,175.97L695.64,175.98L698,175.98L700.36,175.98L702.73,175.99L705.09,175.99L707.45,175.99L709.81,176L712.18,176L714.54,176L716.9,176.01L719.27,176.01L721.63,176.02L723.99,176.02L726.36,176.02L728.72,176.03L731.08,176.03L733.44,176.03L735.81,176.04L738.17,176.04L740.53,176.04L742.9,176.05L745.26,176.05L747.62,176.05L749.99,176.06L752.35,176.06L754.71,176.06L757.07,176.07L759.44,176.07L761.8,176.07L764.16,176.08L766.53,176.08L768.89,176.08L771.25,176.09L773.61,176.09L775.98,176.1L778.34,176.1L780.7,176.1L783.07,176.11L785.43,176.11L787.79,176.11L790.16,176.12L792.52,176.12L794.88,176.12L797.24,176.13L799.61,176.13L801.97,176.13L804.33,176.14L806.7,176.14L809.06,176.14L811.42,176.15L813.79,176.15L816.15,176.15L818.51,176.16L820.87,176.16L823.24,176.16L825.6,176.17L827.96,176.17L830.33,176.17L832.69,176.18L835.05,176.18L837.41,176.19L839.78,176.19L842.14,176.19L844.5,176.2L846.87,176.2L849.23,176.2L851.59,176.21L853.96,176.21L856.32,176.21L858.68,176.22L861.04,176.22L863.41,176.22L865.77,176.23L868.13,176.23L870.5,176.23L872.86,176.24L875.22,176.24L877.59,176.24L879.95,176.25L882.31,176.25L884.67,176.25L887.04,176.26L889.4,176.26L891.76,176.26L894.13,176.27L896.49,176.27L898.85,176.27L901.21,176.28L903.58,176.28L905.94,176.29L908.3,176.29L910.67,176.29L913.03,176.3L915.39,176.3L917.76,176.3L920.12,176.31L922.48,176.31L924.84,176.31L927.21,176.32L929.57,176.32L931.93,176.32L934.3,176.33" fill="none" stroke="#1baf7a" stroke-width="2" stroke-linejoin="round" stroke-linecap="round"/></g></svg>
